<?xml version="1.0" standalone="no"?>
<!DOCTYPE svg PUBLIC "-//W3C//DTD SVG 20010904//EN"
 "http://www.w3.org/TR/2001/REC-SVG-20010904/DTD/svg10.dtd">
<svg version="1.0" xmlns="http://www.w3.org/2000/svg"
 width="56.000000pt" height="56.000000pt" viewBox="0 0 56.000000 56.000000"
 preserveAspectRatio="xMidYMid meet">
<metadata>
Created by potrace 1.16, written by Peter Selinger 2001-2019
</metadata>
<g transform="translate(0.000000,56.000000) scale(0.100000,-0.100000)"
 stroke="none">
<path d="M175 516 c-119 -56 -173 -185 -134 -317 17 -58 99 -140 155 -157 179
-53 343 63 344 243 0 70 -30 144 -76 187 -75 70 -196 88 -289 44z m193 -22
c152 -63 189 -259 71 -371 -142 -135 -378 -35 -379 160 -1 157 165 271 308
211z"/>
<path fill="#d22856" d="M277 373 c-4 -3 -7 -15 -7 -25 0 -10 -4 -18 -10 -18 -5 0 -10 -9 -10
-20 0 -11 5 -20 10 -20 6 0 10 -21 10 -46 0 -38 3 -45 18 -42 12 2 18 15 20
46 2 23 7 42 13 42 14 0 11 37 -3 44 -10 5 -10 7 0 12 21 10 13 34 -11 34 -13
0 -27 -3 -30 -7z"/>
</g>
</svg>
